Coordinates
version=1
nRows=10
nColumns=34
inDegrees=yes

Units are S.I. units (second, meters, Newtons, ...)
If the header above contains a line with 'inDegrees', this indicates whether rotational values are in degrees (yes) or radians (no).

endheader
time	pelvis_tilt	pelvis_list	pelvis_rotation	pelvis_tx	pelvis_ty	pelvis_tz	hip_flexion_r	hip_adduction_r	hip_rotation_r	knee_angle_r	ankle_angle_r	subtalar_angle_r	mtp_angle_r	hip_flexion_l	hip_adduction_l	hip_rotation_l	knee_angle_l	ankle_angle_l	subtalar_angle_l	mtp_angle_l	lumbar_extension	lumbar_bending	lumbar_rotation	arm_flex_r	arm_add_r	arm_rot_r	elbow_flex_r	pro_sup_r	arm_flex_l	arm_add_l	arm_rot_l	elbow_flex_l	pro_sup_l
      0.93333330	     -3.77471378	     -0.66004767	     -1.03589792	      1.57697674	      0.85813844	     -0.06584382	      6.96234890	     -3.99586223	     -8.17290873	      6.18414042	      3.55330118	    -13.37257685	      0.00000000	      5.91027052	     -4.89124451	     -2.19372811	      4.56173788	      4.88836768	     -6.12249454	      0.00000000	    -13.26416263	      3.48331911	     -1.71075972	      6.33412301	     -9.72246741	     32.56332502	     85.11078166	     90.46275680	     12.32649540	     -2.98819378	     29.47333322	     58.43481498	     84.15789426
      0.95000000	     -3.80118417	     -0.65158425	     -1.04309472	      1.57753228	      0.85798672	     -0.06603738	      6.95512086	     -4.00169268	     -8.17251300	      6.18161873	      3.55111034	    -13.37251105	      0.00000000	      5.89304138	     -4.89228443	     -2.19321275	      4.57089336	      4.88878283	     -6.12267352	      0.00000000	    -13.26521233	      3.48676790	     -1.71244158	      6.33673843	     -9.72913266	     32.55780012	     85.10968370	     90.45963340	     12.32196586	     -2.98555974	     29.47580184	     58.43381003	     84.15858703
      0.96666670	     -3.81281391	     -0.58772384	     -1.12563913	      1.57802964	      0.85775834	     -0.06606098	      6.92703429	     -4.07551862	     -8.15172652	      6.08646150	      3.51582872	    -13.35576388	      0.00000000	      5.86209215	     -4.81463868	     -2.20958630	      4.59523112	      4.89242169	     -6.13540900	      0.00000000	    -13.26001622	      3.54092863	     -1.71352051	      6.32677129	     -9.83007637	     32.49521153	     85.07219396	     90.42088831	     12.17065599	     -2.95187582	     29.52459908	     58.40191966	     84.16842670
      0.98333330	     -3.82169822	     -0.56506614	     -1.04539750	      1.57850583	      0.85765709	     -0.06579815	      6.87650124	     -4.09854218	     -8.10652026	      6.06341242	      3.47816554	    -13.32496198	      0.00000000	      5.86022050	     -4.80062684	     -2.25421973	      4.58535677	      4.89549586	     -6.16257411	      0.00000000	    -13.24852948	      3.52898563	     -1.67315811	      6.30875137	     -9.86992603	     32.46744578	     85.03272037	     90.39164957	     12.06175119	     -2.94783141	     29.55114897	     58.37422091	     84.17553573
      1.00000000	     -3.83028237	     -0.52788359	     -1.13274685	      1.57846927	      0.85768564	     -0.06545350	      6.86528678	     -4.12458113	     -8.10475744	      5.99516922	      3.46526052	    -13.31951158	      0.00000000	      5.83802825	     -4.76685770	     -2.26406178	      4.61810236	      4.88252870	     -6.17084743	      0.00000000	    -13.25590187	      3.54669869	     -1.67140044	      6.25799924	     -9.91914482	     32.44471791	     84.97006956	     90.36485878	     11.98479111	     -2.93292816	     29.57743381	     58.35081528	     84.18274218
      1.01666670	     -3.83413259	     -0.52575570	     -1.12915313	      1.57833194	      0.85779512	     -0.06533926	      6.86475433	     -4.12439723	     -8.10407762	      5.99481369	      3.46495235	    -13.31911569	      0.00000000	      5.83541221	     -4.76658332	     -2.26519348	      4.61911035	      4.88259372	     -6.17155401	      0.00000000	    -13.25621066	      3.54721932	     -1.67030656	      6.25759249	     -9.91992836	     32.44436177	     84.96880796	     90.36442370	     11.98289047	     -2.93300661	     29.57785598	     58.35019922	     84.18286304
      1.03333330	     -3.84441506	     -0.48512013	     -1.01602371	      1.57837569	      0.85781676	     -0.06537000	      6.84052111	     -4.15823595	     -8.07273602	      5.96876120	      3.45662657	    -13.30611520	      0.00000000	      5.87191384	     -4.72424954	     -2.32596171	      4.60683268	      4.88391481	     -6.20710835	      0.00000000	    -13.31155778	      3.57583927	     -1.60313549	      6.22666737	     -9.96505741	     32.42860091	     84.88416234	     90.34266165	     11.86572692	     -2.95330221	     29.60190610	     58.30624602	     84.18939378
      1.05000000	     -3.83856775	     -0.48175138	     -1.01675493	      1.57865402	      0.85771906	     -0.06536925	      6.84349581	     -4.15680516	     -8.07286539	      5.96707773	      3.45660838	    -13.30615559	      0.00000000	      5.87380507	     -4.72399110	     -2.32626974	      4.60669521	      4.88370717	     -6.20736336	      0.00000000	    -13.31229682	      3.57647315	     -1.60309296	      6.22595796	     -9.96595223	     32.42826441	     84.88261016	     90.34227634	     11.86486638	     -2.95292466	     29.60235180	     58.30582239	     84.18952153
      1.06666670	     -3.84433455	     -0.41564901	     -1.05136521	      1.57928275	      0.85760850	     -0.06534204	      6.82647954	     -4.23131820	     -8.07780918	      5.93802493	      3.46017511	    -13.32142890	      0.00000000	      5.88029448	     -4.64239160	     -2.40363227	      4.66963799	      4.87186472	     -6.25590884	      0.00000000	    -13.38950732	      3.65545640	     -1.56554653	      6.11159220	    -10.05694221	     32.40802080	     84.69750513	     90.30064196	     11.69383200	     -2.92640054	     29.66445914	     58.24053141	     84.20477536
      1.08333330	     -3.84522342	     -0.41514504	     -1.04954410	      1.57944313	      0.85784634	     -0.06519512	      6.82589048	     -4.23011902	     -8.07757192	      5.93930278	      3.45992720	    -13.32136904	      0.00000000	      5.88016079	     -4.64132398	     -2.40460349	      4.67022015	      4.87186318	     -6.25658184	      0.00000000	    -13.38877943	      3.65533928	     -1.56486277	      6.11176532	    -10.05709185	     32.40765491	     84.69610027	     90.30014582	     11.69357436	     -2.92582378	     29.66485416	     58.24029904	     84.20494366
